<?xml version="1.0" encoding="UTF-8"?>
<svg width="1200pt" height="1200pt" version="1.1" viewBox="0 0 1200 1200" xmlns="http://www.w3.org/2000/svg">
 <g>
  <path d="m821.79 634.71c0 41.422 33.578 75 75 75s75-33.578 75-75-33.578-75-75-75-75 33.578-75 75zm75-56.25c31.016 0 56.25 25.234 56.25 56.25s-25.234 56.25-56.25 56.25-56.25-25.234-56.25-56.25 25.234-56.25 56.25-56.25z"/>
  <path d="m295.65 709.71c41.422 0 75-33.578 75-75s-33.578-75-75-75c-41.422 0-75 33.578-75 75s33.578 75 75 75zm0-131.25c31.016 0 56.25 25.234 56.25 56.25s-25.234 56.25-56.25 56.25c-31.016 0-56.25-25.234-56.25-56.25s25.234-56.25 56.25-56.25z"/>
  <path d="m524.91 272.43c0 10.547 2.1992 20.574 6.1289 29.68-15.438 1.6523-30.75 4.3867-45.762 8.4883-75.598 20.66-139.52 71.223-177.03 140.03-9.8008 17.977-1.4492 40.469 17.711 47.688 13.555 5.1094 28.859 0.98828 38.016-10.234l6.4883-7.9492c30.055-36.836 71.504-61.871 117.12-71.773-5.7344 34.594-10.305 86.305 3.7109 125.19 2.1641 6.0078 7.8867 10 14.27 10h186.39c6.3867 0 12.105-3.9922 14.27-10 14.082-39.074 9.3984-91.102 3.625-125.7 46.625 9.5117 89.066 34.758 119.68 72.277l6.4883 7.9492c9.1602 11.223 24.461 15.344 38.016 10.234 19.16-7.2227 27.512-29.711 17.711-47.688-37.512-68.809-101.43-119.37-177.03-140.03-15.066-4.1172-30.438-6.8555-45.934-8.5039 3.9258-9.1016 6.1211-19.121 6.1211-29.66 0-41.422-33.578-75-75-75-41.422 0-75 33.578-75 75zm123.58 28.219c-9.7422 16.707-27.801 27.992-48.492 28.027-0.03125 0-0.058594 0.003906-0.089844 0.003906-20.723 0-38.82-11.297-48.578-28.023-4.8477-8.3086-7.6719-17.934-7.6719-28.227 0-31.016 25.234-56.25 56.25-56.25s56.25 25.234 56.25 56.25c0 10.289-2.8242 19.914-7.668 28.219z"/>
  <path d="m1058.4 384.09-453.46-278.16c-3.0039-1.8398-6.793-1.8398-9.7969 0l-453.46 278.16c-2.7852 1.707-4.4766 4.7344-4.4766 7.9922v694.01c0 5.1758 4.1914 9.375 9.375 9.375h906.92c5.1836 0 9.375-4.1992 9.375-9.375v-694.01c0-3.2578-1.6953-6.2852-4.4766-7.9922zm-14.273 692.62h-888.17v-679.39l444.09-272.41 444.09 272.41z"/>
  <path d="m671.85 681.44c6.4922-8.3711 10.512-18.746 10.512-30.16 0-27.316-22.145-49.465-49.465-49.465-12.688 0-24.141 4.918-32.898 12.773-8.7578-7.8555-20.207-12.773-32.898-12.773-27.316 0-49.465 22.145-49.465 49.465 0 11.41 4.0234 21.789 10.512 30.16h-0.25781l58.004 66.207c7.4688 8.5273 20.738 8.5273 28.207 0l58-66.207h-0.25781z"/>
  <path d="m546.53 866.4h-7.9141c-46.551 0-90.418-21.77-118.57-58.836l-24.52-32.281s-32.953-47.461-95.684-47.461c-51.055 0-92.754 40.789-93.879 91.832l-3.6484 191.55c-0.14844 7.8359 6.1602 14.266 13.996 14.266h167.04c8.1367 0 14.523-6.957 13.977-15.074-4.082-60.664-16.145-99.414-19.121-124.9 40.832 35.527 93.133 55.098 147.25 55.098h19.48c19.375 0 36.676-14.168 38.512-33.453 2.1094-22.125-15.234-40.738-36.922-40.738z"/>
  <path d="m900.14 727.82c-62.727 0-95.684 47.461-95.684 47.461l-24.52 32.277c-28.156 37.07-72.031 58.84-118.58 58.84h-6.3086c-19.375 0-36.68 14.164-38.52 33.449-2.1133 22.125 15.23 40.742 36.922 40.742h21.07c54.125 0 106.42-19.566 147.25-55.098 0.58984 29.051-4.4688 66.793-10.766 124.39-0.90625 8.2852 5.5742 15.582 13.91 15.582h158.12c7.8945 0 14.223-6.5898 13.992-14.48-1.4727-50.641-3.3047-78.969-4.4453-97.422-5.2812-85.531-13.914-116.58-13.914-116.58-10.648-55.453-54.723-69.16-78.535-69.16z"/>
 </g>
</svg>
